<svg width="133" height="12" viewBox="0 0 133 12" fill="none" xmlns="http://www.w3.org/2000/svg">
<path d="M2.892 6.584L0.348 2.48H1.308L3.612 6.26H5.208V2.48H6.132V6.26H7.728L10.02 2.48H10.992L8.436 6.584L11.304 11H10.332L7.848 7.004H6.132V11H5.208V7.004H3.492L1.008 11H0.036L2.892 6.584ZM14.7038 9.74L19.9838 2.48H20.6798V11H19.8398V3.86L14.6438 11H13.8758V2.48H14.7038V9.74ZM26.2123 4.736C26.1163 5.864 25.9923 6.828 25.8403 7.628C25.6963 8.428 25.5123 9.084 25.2883 9.596C25.0723 10.1 24.8083 10.472 24.4963 10.712C24.1923 10.944 23.8323 11.06 23.4163 11.06L23.2723 10.256C23.4323 10.248 23.5843 10.216 23.7283 10.16C23.8803 10.104 24.0243 10.004 24.1603 9.86C24.2963 9.708 24.4243 9.504 24.5443 9.248C24.6643 8.984 24.7763 8.648 24.8803 8.24C24.9843 7.824 25.0763 7.324 25.1563 6.74C25.2443 6.156 25.3203 5.464 25.3843 4.664L25.5643 2.48H29.8963V11H29.0683V3.224H26.3323L26.2123 4.736ZM36.957 11.06C36.365 11.06 35.821 10.94 35.325 10.7C34.837 10.452 34.417 10.128 34.065 9.728C33.713 9.32 33.441 8.856 33.249 8.336C33.057 7.816 32.961 7.284 32.961 6.74C32.961 6.172 33.061 5.628 33.261 5.108C33.469 4.588 33.753 4.128 34.113 3.728C34.473 3.328 34.897 3.012 35.385 2.78C35.873 2.54 36.401 2.42 36.969 2.42C37.561 2.42 38.101 2.548 38.589 2.804C39.085 3.052 39.505 3.38 39.849 3.788C40.201 4.196 40.473 4.66 40.665 5.18C40.857 5.692 40.953 6.216 40.953 6.752C40.953 7.32 40.849 7.864 40.641 8.384C40.441 8.904 40.161 9.364 39.801 9.764C39.449 10.156 39.029 10.472 38.541 10.712C38.053 10.944 37.525 11.06 36.957 11.06ZM33.801 6.74C33.801 7.204 33.877 7.652 34.029 8.084C34.181 8.508 34.397 8.888 34.677 9.224C34.957 9.552 35.289 9.816 35.673 10.016C36.057 10.208 36.485 10.304 36.957 10.304C37.437 10.304 37.873 10.2 38.265 9.992C38.657 9.784 38.989 9.512 39.261 9.176C39.533 8.84 39.741 8.46 39.885 8.036C40.037 7.612 40.113 7.18 40.113 6.74C40.113 6.276 40.033 5.832 39.873 5.408C39.721 4.976 39.505 4.596 39.225 4.268C38.945 3.94 38.613 3.68 38.229 3.488C37.845 3.288 37.421 3.188 36.957 3.188C36.477 3.188 36.041 3.292 35.649 3.5C35.257 3.7 34.925 3.968 34.653 4.304C34.381 4.64 34.169 5.02 34.017 5.444C33.873 5.868 33.801 6.3 33.801 6.74ZM49.2567 0.00799918C49.2407 0.391999 49.0767 0.7 48.7647 0.931999C48.4607 1.156 48.0367 1.268 47.4927 1.268C46.9487 1.268 46.5207 1.156 46.2087 0.931999C45.9047 0.7 45.7447 0.391999 45.7287 0.00799918H46.2447C46.2447 0.111999 46.2767 0.211999 46.3407 0.308C46.4047 0.403999 46.4927 0.487999 46.6047 0.559999C46.7167 0.631999 46.8487 0.691999 47.0007 0.74C47.1527 0.78 47.3207 0.8 47.5047 0.8C47.8487 0.8 48.1327 0.728 48.3567 0.584C48.5887 0.432 48.7207 0.24 48.7527 0.00799918H49.2567ZM44.8167 9.74L50.0967 2.48H50.7927V11H49.9527V3.86L44.7567 11H43.9887V2.48H44.8167V9.74ZM59.7319 6.26H61.0279L63.8119 2.48H64.7719L61.7839 6.584L65.0839 11H64.1239L61.0999 7.004H59.7319V11H58.9039V2.48H59.7319V6.26ZM70.6545 11.06C70.0625 11.06 69.5185 10.94 69.0225 10.7C68.5345 10.452 68.1145 10.128 67.7625 9.728C67.4105 9.32 67.1385 8.856 66.9465 8.336C66.7545 7.816 66.6585 7.284 66.6585 6.74C66.6585 6.172 66.7585 5.628 66.9585 5.108C67.1665 4.588 67.4505 4.128 67.8105 3.728C68.1705 3.328 68.5945 3.012 69.0825 2.78C69.5705 2.54 70.0985 2.42 70.6665 2.42C71.2585 2.42 71.7985 2.548 72.2865 2.804C72.7825 3.052 73.2025 3.38 73.5465 3.788C73.8985 4.196 74.1705 4.66 74.3625 5.18C74.5545 5.692 74.6505 6.216 74.6505 6.752C74.6505 7.32 74.5465 7.864 74.3385 8.384C74.1385 8.904 73.8585 9.364 73.4985 9.764C73.1465 10.156 72.7265 10.472 72.2385 10.712C71.7505 10.944 71.2225 11.06 70.6545 11.06ZM67.4985 6.74C67.4985 7.204 67.5745 7.652 67.7265 8.084C67.8785 8.508 68.0945 8.888 68.3745 9.224C68.6545 9.552 68.9865 9.816 69.3705 10.016C69.7545 10.208 70.1825 10.304 70.6545 10.304C71.1345 10.304 71.5705 10.2 71.9625 9.992C72.3545 9.784 72.6865 9.512 72.9585 9.176C73.2305 8.84 73.4385 8.46 73.5825 8.036C73.7345 7.612 73.8105 7.18 73.8105 6.74C73.8105 6.276 73.7305 5.832 73.5705 5.408C73.4185 4.976 73.2025 4.596 72.9225 4.268C72.6425 3.94 72.3105 3.68 71.9265 3.488C71.5425 3.288 71.1185 3.188 70.6545 3.188C70.1745 3.188 69.7385 3.292 69.3465 3.5C68.9545 3.7 68.6225 3.968 68.3505 4.304C68.0785 4.64 67.8665 5.02 67.7145 5.444C67.5705 5.868 67.4985 6.3 67.4985 6.74ZM85.2222 11V4.004L82.1142 9.416H81.6222L78.5142 4.004V11H77.6742V2.48H78.5382L81.8622 8.312L85.2102 2.48H86.0622V11H85.2222ZM89.6848 2.48H96.2608V11H95.4208V3.224H90.5128V11H89.6848V2.48ZM101.787 4.736C101.691 5.864 101.567 6.828 101.415 7.628C101.271 8.428 101.087 9.084 100.863 9.596C100.647 10.1 100.383 10.472 100.071 10.712C99.767 10.944 99.407 11.06 98.991 11.06L98.847 10.256C99.007 10.248 99.159 10.216 99.303 10.16C99.455 10.104 99.599 10.004 99.735 9.86C99.871 9.708 99.999 9.504 100.119 9.248C100.239 8.984 100.351 8.648 100.455 8.24C100.559 7.824 100.651 7.324 100.731 6.74C100.819 6.156 100.895 5.464 100.959 4.664L101.139 2.48H105.471V11H104.643V3.224H101.907L101.787 4.736ZM114.824 10.256V11H109.1V2.48H114.716V3.224H109.94V6.296H114.104V7.004H109.94V10.256H114.824ZM118.692 6.26H119.988L122.772 2.48H123.732L120.744 6.584L124.044 11H123.084L120.06 7.004H118.692V11H117.864V2.48H118.692V6.26ZM125.607 6.68C125.607 6.168 125.695 5.66 125.871 5.156C126.055 4.644 126.319 4.188 126.663 3.788C127.007 3.388 127.431 3.064 127.935 2.816C128.439 2.56 129.011 2.432 129.651 2.432C130.411 2.432 131.059 2.604 131.595 2.948C132.139 3.292 132.539 3.74 132.795 4.292L132.135 4.7C131.999 4.42 131.831 4.184 131.631 3.992C131.439 3.8 131.231 3.644 131.007 3.524C130.783 3.404 130.551 3.32 130.311 3.272C130.071 3.216 129.835 3.188 129.603 3.188C129.091 3.188 128.639 3.292 128.247 3.5C127.855 3.708 127.523 3.98 127.251 4.316C126.987 4.652 126.787 5.032 126.651 5.456C126.515 5.872 126.447 6.296 126.447 6.728C126.447 7.2 126.527 7.652 126.687 8.084C126.855 8.516 127.079 8.9 127.359 9.236C127.647 9.564 127.983 9.828 128.367 10.028C128.759 10.22 129.183 10.316 129.639 10.316C129.879 10.316 130.123 10.288 130.371 10.232C130.627 10.168 130.871 10.072 131.103 9.944C131.343 9.808 131.563 9.644 131.763 9.452C131.963 9.252 132.131 9.012 132.267 8.732L132.963 9.092C132.827 9.412 132.635 9.696 132.387 9.944C132.139 10.184 131.863 10.388 131.559 10.556C131.255 10.724 130.931 10.852 130.587 10.94C130.251 11.028 129.919 11.072 129.591 11.072C129.007 11.072 128.471 10.944 127.983 10.688C127.495 10.432 127.075 10.1 126.723 9.692C126.371 9.276 126.095 8.808 125.895 8.288C125.703 7.76 125.607 7.224 125.607 6.68Z" fill="white"/>
</svg>
